<svg width="56" height="56" viewBox="0 0 56 56" fill="none" xmlns="http://www.w3.org/2000/svg">
<path d="M39.1667 11.6667V12.1667H39.6667H44.3333C46.6239 12.1667 48.5 14.0428 48.5 16.3333V18.6667C48.5 24.3565 44.2158 29.0043 38.6944 29.6972L38.4076 29.7332L38.2957 29.9997C36.8889 33.3493 33.8729 35.8732 30.2341 36.6099L29.8333 36.6911V37.1V44.3333V44.8333H30.3333H39.1667V48.5H16.8333V44.8333H25.6667H26.1667V44.3333V37.1V36.6911L25.7659 36.6099C22.1271 35.8732 19.1111 33.3493 17.7043 29.9997L17.5924 29.7332L17.3056 29.6972C11.7842 29.0043 7.5 24.3565 7.5 18.6667V16.3333C7.5 14.0428 9.37614 12.1667 11.6667 12.1667H16.3333H16.8333V11.6667V7.5H39.1667V11.6667ZM11.6667 15.8333H11.1667V16.3333V18.6667C11.1667 21.9228 13.2703 24.6694 16.1631 25.7168L16.8333 25.9595V25.2467V16.3333V15.8333H16.3333H11.6667ZM21 11.1667H20.5V11.6667V25.6667C20.5 29.7928 23.8739 33.1667 28 33.1667C32.1261 33.1667 35.5 29.7928 35.5 25.6667V11.6667V11.1667H35H21ZM39.1667 25.2467V25.9595L39.8369 25.7168C42.7297 24.6694 44.8333 21.9228 44.8333 18.6667V16.3333V15.8333H44.3333H39.6667H39.1667V16.3333V25.2467Z" stroke="black" stroke-opacity="0.1"/>
</svg>
