<svg width="58" height="58" viewBox="0 0 58 58" fill="none" xmlns="http://www.w3.org/2000/svg">
<path d="M29.0001 53.1666C31.6584 53.1666 33.8334 50.9916 33.8334 48.3333H24.1667C24.1667 50.9916 26.3417 53.1666 29.0001 53.1666ZM43.5001 38.6666V26.5833C43.5001 19.1641 39.5609 12.9533 32.6251 11.31V9.66663C32.6251 7.66079 31.0059 6.04163 29.0001 6.04163C26.9942 6.04163 25.3751 7.66079 25.3751 9.66663V11.31C18.4634 12.9533 14.5001 19.14 14.5001 26.5833V38.6666L9.66675 43.5V45.9166H48.3334V43.5L43.5001 38.6666ZM38.6667 41.0833H19.3334V26.5833C19.3334 20.59 22.9826 15.7083 29.0001 15.7083C35.0176 15.7083 38.6667 20.59 38.6667 26.5833V41.0833Z" fill="black"/>
</svg>
