<svg width="58" height="58" viewBox="0 0 58 58" fill="none" xmlns="http://www.w3.org/2000/svg">
<path d="M28.9998 53.1666C31.6582 53.1666 33.8332 50.9916 33.8332 48.3333H24.1665C24.1665 50.9916 26.3415 53.1666 28.9998 53.1666ZM43.4998 38.6666V26.5833C43.4998 19.1641 39.5607 12.9533 32.6248 11.31V9.66663C32.6248 7.66079 31.0057 6.04163 28.9998 6.04163C26.994 6.04163 25.3748 7.66079 25.3748 9.66663V11.31C18.4632 12.9533 14.4998 19.14 14.4998 26.5833V38.6666L9.6665 43.5V45.9166H48.3332V43.5L43.4998 38.6666ZM38.6665 41.0833H19.3332V26.5833C19.3332 20.59 22.9823 15.7083 28.9998 15.7083C35.0173 15.7083 38.6665 20.59 38.6665 26.5833V41.0833Z" fill="black"/>
<ellipse cx="41" cy="17" rx="9" ry="9" fill="#F04949"/>
</svg>
